<svg width="25" height="25" viewBox="0 0 25 25" fill="none" xmlns="http://www.w3.org/2000/svg">
<path d="M17.8291 22.8642H6.24906C3.50906 22.8642 1.28906 20.6342 1.28906 17.8942V10.4842C1.28906 9.12423 2.12906 7.41423 3.20906 6.57423L8.59906 2.37423C10.2191 1.11423 12.8091 1.05423 14.4891 2.23423L20.6691 6.56423C21.8591 7.39423 22.7891 9.17423 22.7891 10.6242V17.9042C22.7891 20.6342 20.5691 22.8642 17.8291 22.8642ZM9.51906 3.55423L4.12906 7.75423C3.41906 8.31423 2.78906 9.58423 2.78906 10.4842V17.8942C2.78906 19.8042 4.33906 21.3642 6.24906 21.3642H17.8291C19.7391 21.3642 21.2891 19.8142 21.2891 17.9042V10.6242C21.2891 9.66423 20.5991 8.33423 19.8091 7.79423L13.6291 3.46423C12.4891 2.66423 10.6091 2.70423 9.51906 3.55423Z" fill="#00DC8A"/>
<path  d="M12.0391 18.8643C11.6291 18.8643 11.2891 18.5243 11.2891 18.1143V15.1143C11.2891 14.7043 11.6291 14.3643 12.0391 14.3643C12.4491 14.3643 12.7891 14.7043 12.7891 15.1143V18.1143C12.7891 18.5243 12.4491 18.8643 12.0391 18.8643Z" fill="#00DC8A"/>
</svg>
